PathFileType	4	(X/Y/Z)	..\data\2014034\dynamic\2014034_C4_04.trc
DataRate	CameraRate	NumFrames	NumMarkers	Units	OrigDataRate	OrigDataStartFrame	OrigNumFrames
100.000000	100.000000	4	52	mm	100.000000	22	180
Frame#	Time	L_IAS			L_IPS			R_IPS			R_IAS			L_FTC			L_FLE			L_FME			L_FAX			L_TTC			L_FAL			L_TAM			L_FCC			L_FM1			L_FM2			L_FM5			R_FTC			R_FLE			R_FME			R_FAX			R_TTC			R_FAL			R_TAM			R_FCC			R_FM1			R_FM2			R_FM5			CV7			TV10			SXS			SJN			L_SIA			L_SRS			L_SAA			L_SAE			L_HLE			L_HME			L_UOA			L_RSP			L_UHE			L_HM2			L_HM5			R_SIA			R_SRS			R_SAA			R_SAE			R_HLE			R_HME			R_UOA			R_RSP			R_UHE			R_HM2			R_HM5			
		X1	Y1	Z1	X2	Y2	Z2	X3	Y3	Z3	X4	Y4	Z4	X5	Y5	Z5	X6	Y6	Z6	X7	Y7	Z7	X8	Y8	Z8	X9	Y9	Z9	X10	Y10	Z10	X11	Y11	Z11	X12	Y12	Z12	X13	Y13	Z13	X14	Y14	Z14	X15	Y15	Z15	X16	Y16	Z16	X17	Y17	Z17	X18	Y18	Z18	X19	Y19	Z19	X20	Y20	Z20	X21	Y21	Z21	X22	Y22	Z22	X23	Y23	Z23	X24	Y24	Z24	X25	Y25	Z25	X26	Y26	Z26	X27	Y27	Z27	X28	Y28	Z28	X29	Y29	Z29	X30	Y30	Z30	X31	Y31	Z31	X32	Y32	Z32	X33	Y33	Z33	X34	Y34	Z34	X35	Y35	Z35	X36	Y36	Z36	X37	Y37	Z37	X38	Y38	Z38	X39	Y39	Z39	X40	Y40	Z40	X41	Y41	Z41	X42	Y42	Z42	X43	Y43	Z43	X44	Y44	Z44	X45	Y45	Z45	X46	Y46	Z46	X47	Y47	Z47	X48	Y48	Z48	X49	Y49	Z49	X50	Y50	Z50	X51	Y51	Z51	X52	Y52	Z52	

23	0.22	239.2170715332032	1023.263244628906	-397.466522216797	22.77633857727051	1049.578369140625	-310.0266113281251	21.12647438049317	1047.642456054688	-213.5035095214844	228.5257415771485	1027.3515625	-120.2363891601563	158.5238189697266	963.6424560546877	-445.9483337402345	275.1416931152344	523.3490600585939	-402.0202026367189	273.8899536132813	518.5831909179689	-253.9707641601563	262.2962036132813	463.2219238281251	-405.0195617675782	339.4382019042969	463.214569091797	-345.1564941406251	247.6466217041016	71.59877014160158	-384.0525817871095	258.8228454589844	82.84136962890626	-285.8499450683594	193.6823730468751	19.25876998901368	-341.5842895507813	401.0550842285157	26.10962677001954	-277.2467041015626	415.5653686523439	40.34624099731446	-340.7459411621094	384.2548828125001	19.56006813049317	-394.7640380859376	130.2612457275391	947.389587402344	-69.68934631347658	149.1138916015625	514.9558105468751	-80.34238433837892	184.5724792480469	482.7502746582032	-216.9759979248047	108.3394317626953	475.9202575683595	-77.1985321044922	158.6223907470703	416.263641357422	-125.4093399047852	-210.9167938232422	242.8584136962891	-117.3144226074219	-172.4962310791016	219.7872314453126	-206.8882446289063	-269.0451049804688	251.7307434082032	-180.526107788086	-173.325668334961	62.78116607666017	-196.850326538086	-159.99560546875	71.19785308837892	-137.6434326171875	-202.7796478271485	93.66897583007814	-95.70629882812501	122.1798934936524	1572.072021484375	-297.2435607910157	9.678163528442385	1309.328002929688	-275.0767822265626	293.1379089355469	1260.813232421875	-282.1000061035157	239.4251098632813	1468.9560546875	-284.9064636230469	9.023516654968263	1335.95458984375	-390.7719116210939	67.18163299560548	1491.437255859375	-403.4457397460939	128.8134918212891	1486.550415039063	-481.0122070312501	196.0242462158204	1466.72216796875	-500.5316467285157	78.43661499023439	1140.15869140625	-542.9188842773439	31.00027084350587	1150.037719726563	-455.3157043457032	28.1986484527588	1131.611083984375	-514.2011718750001	98.97913360595706	861.3696899414065	-482.3650817871095	57.32733535766603	874.6707153320315	-556.8955688476564	100.1684722900391	751.3815917968751	-476.7043762207032	15.4069995880127	784.3516235351565	-545.9988403320314	2.74251675605774	1349.73193359375	-173.244125366211	59.66260910034181	1504.551513671875	-184.6299591064453	111.2258911132813	1509.387451171875	-108.8431625366211	165.8009338378907	1504.32275390625	-84.71047973632814	111.5918960571289	1173.540405273438	6.252510547637941	95.67117309570314	1144.70361328125	-84.34207916259767	77.62979888916017	1135.69482421875	-28.00986480712891	301.7442016601563	947.7440185546877	11.30181121826172	236.4879608154297	923.8737792968752	53.1933059692383	362.8853759765626	877.6889648437502	35.30412292480469	262.9044494628907	828.1970214843752	50.50783538818361	
24	0.23	251.911605834961	1024.019409179688	-398.3868103027345	35.34153747558594	1051.44873046875	-311.9598388671876	33.37080001831055	1049.281616210938	-215.6598510742188	240.0307769775391	1028.313232421875	-120.6209030151367	171.062240600586	964.9763793945315	-447.3688354492189	280.6882629394532	523.0107421875001	-402.5657348632814	279.2570190429688	518.3394775390626	-254.6859130859376	266.8377380371094	462.9877014160157	-405.4139709472657	344.2213134765626	462.0792846679689	-345.7364501953126	247.9408569335938	71.5057830810547	-384.130340576172	258.7457885742188	82.80648040771486	-285.8458251953126	193.6756134033204	19.33256530761719	-341.7073059082032	400.8392639160157	25.78284645080567	-276.8199462890626	416.0191955566407	39.95591354370118	-340.5089111328126	384.3768310546876	19.40659141540528	-394.8441772460939	142.4868316650391	948.9259033203127	-71.1763153076172	172.9039306640625	517.2690429687501	-79.31288146972658	209.783432006836	485.4619750976564	-215.7909698486329	132.7911529541016	478.1795654296876	-76.6642532348633	183.7128601074219	418.731414794922	-124.4737319946289	-186.2531890869141	245.934555053711	-119.5023880004883	-146.7518310546875	221.9774169921876	-208.599349975586	-244.2691192626954	252.6685638427735	-183.4630279541016	-144.4482421875	64.94967651367189	-194.3144683837891	-131.8792114257813	75.05189514160158	-135.1268463134766	-175.7119750976563	98.27351379394534	-94.4811248779297	135.1715240478516	1573.697875976563	-297.8079833984376	22.42166900634766	1311.03759765625	-277.0184326171876	305.7079162597657	1262.346435546875	-281.8347167968751	252.183090209961	1470.50439453125	-284.9826965332032	22.29857826232911	1337.47802734375	-392.4248046875001	80.30958557128908	1493.073120117188	-404.5025939941407	142.3621520996094	1487.969604492188	-481.7602844238282	209.7643280029297	1468.153442382813	-500.7316894531251	97.24562835693362	1140.320678710938	-544.9300537109376	48.03837203979494	1149.373413085938	-458.0942382812501	46.62577819824219	1130.954956054688	-516.9678955078126	121.4257583618164	861.808044433594	-484.2883605957032	80.55947113037111	874.5124511718752	-559.3272705078126	124.5742797851563	752.0371704101564	-478.8580627441407	40.0766944885254	783.4698486328127	-549.0897216796876	14.42253017425537	1351.123046875	-175.5711517333985	71.81509399414064	1505.957885742188	-185.8933868408203	122.7194061279297	1510.638061523438	-109.7104949951172	177.095703125	1505.44287109375	-84.93597412109376	120.2002487182617	1174.64599609375	4.458318233489991	104.1010131835938	1146.603881835938	-86.22042083740236	85.58232879638673	1137.839233398438	-29.91390609741212	304.9682922363282	944.4627075195315	9.198358535766603	239.2594757080079	922.355895996094	51.33657073974611	364.2349853515626	872.501403808594	32.75991821289063	262.6673583984376	826.1619873046877	48.49848937988283	
25	0.24	264.5440673828126	1024.822998046875	-399.1979980468751	47.84258270263673	1053.313110351563	-313.8508605957032	45.56182479858399	1051.04150390625	-217.7108459472657	251.5223999023438	1029.40283203125	-120.9609909057617	183.5023651123047	966.2567138671877	-448.7268981933595	285.7961730957032	522.6851806640626	-403.0769653320314	284.3473205566407	518.0753784179689	-255.3562927246094	270.9779052734376	462.7711181640626	-405.7889404296876	348.5986633300782	461.0068359375001	-346.3467712402344	248.2521362304688	71.43621063232423	-384.266815185547	258.7151489257813	82.79248809814455	-285.9022827148438	193.6569976806641	19.45502662658692	-341.8718872070313	400.6532287597657	25.39412498474122	-276.4427490234376	416.4494018554689	39.45941543579102	-340.2311706542969	384.4895019531251	19.12535095214844	-394.8988037109376	154.6536102294922	950.6172485351565	-72.57312774658205	196.3681182861329	519.9636230468751	-78.47358703613283	234.4790802001954	488.6705627441407	-214.7969055175782	156.9041137695313	480.6953735351564	-76.36678314208986	208.8016204833985	421.5477600097657	-123.6988220214844	-160.5945892333985	247.3373565673829	-121.6263885498047	-119.9522476196289	222.9107513427735	-210.2918395996094	-218.6333007812501	251.4763641357422	-186.2317504882813	-113.0123062133789	66.25115966796876	-192.073226928711	-101.2831726074219	78.15850067138673	-132.85400390625	-146.2217407226563	101.4019851684571	-93.38963317871095	148.0274658203125	1575.330688476563	-298.1848449707032	35.0640983581543	1312.739379882813	-278.8996276855469	318.1640014648438	1263.907470703125	-281.5206604003907	264.8238220214844	1472.053833007813	-284.9213562011719	35.33165359497071	1339.070678710938	-393.8891601562501	93.23777770996095	1494.758911132813	-405.3569641113282	155.6251983642578	1489.423461914063	-482.3273315429689	223.1983947753907	1469.638061523438	-500.8142700195314	116.086181640625	1140.542846679688	-546.7994384765626	65.2491912841797	1148.609008789063	-460.6833801269532	65.13950347900392	1130.273071289063	-519.5399169921876	144.243148803711	862.3702392578127	-486.194793701172	104.1350173950196	874.4800415039065	-561.7110595703126	149.5142059326172	752.8688354492189	-481.0807495117189	65.22570037841798	782.7033691406252	-552.1762084960939	25.91998291015626	1352.4677734375	-177.912094116211	83.87136077880861	1507.28857421875	-187.0368347167969	134.0526275634766	1511.782958984375	-110.4494094848633	188.2396392822266	1506.443359375	-84.98502349853517	128.6145477294922	1175.609252929688	2.625713348388672	112.3791809082032	1148.40771484375	-88.13787078857423	93.39073181152345	1139.876708984375	-31.89113807678223	307.8330688476563	941.212341308594	7.138558864593508	241.6790008544922	920.827331542969	49.44349288940431	365.1476440429688	867.379821777344	30.27660369873048	262.0944824218751	824.1902465820315	46.44091033935548	
26	0.25	277.1082153320313	1025.72216796875	-399.9069824218751	60.28743362426759	1055.158081054688	-315.6651611328126	57.71028900146486	1052.875366210938	-219.6128387451172	263.0458068847657	1030.644775390625	-121.314567565918	195.819076538086	967.484558105469	-450.0044555664064	290.5280761718751	522.3910522460939	-403.5472106933595	289.1927185058594	517.8081665039064	-255.9647064208985	274.7971191406251	462.5956420898439	-406.1492919921876	352.6099548339844	460.013397216797	-346.9535522460938	248.5956115722657	71.4091033935547	-384.4470214843751	258.7456665039063	82.81604766845705	-286.0028076171876	193.6487426757813	19.64168167114258	-342.0733642578126	400.5095520019532	24.95125961303712	-276.1248474121094	416.8673400878907	38.88737487792969	-339.9238586425782	384.6033630371095	18.75130462646485	-394.9504394531251	166.8269653320313	952.4149169921877	-73.86581420898439	219.4532775878907	522.9598388671876	-77.83860015869142	258.6775817871094	492.2552185058595	-213.9801635742188	180.6212005615235	483.3967285156251	-76.30140686035158	233.8251953125001	424.6516418457032	-123.0630950927735	-133.9783325195313	246.9969787597657	-123.6083908081055	-92.17612457275392	222.5442657470704	-211.8956146240235	-192.1441650390626	248.2223663330079	-188.7323303222657	-79.34427642822267	66.68643951416017	-190.2232513427735	-68.51797485351564	80.39408111572267	-130.9353942871094	-114.5802536010742	102.9600296020508	-92.50788879394533	160.7625885009766	1576.949462890625	-298.4009704589844	47.61684036254884	1314.413330078125	-280.7068176269532	330.5215148925782	1265.4794921875	-281.1905212402344	277.3608398437501	1473.584106445313	-284.7475891113282	48.15363693237306	1340.725830078125	-395.1978149414064	105.9970932006836	1496.47607421875	-406.0354919433595	168.6443023681641	1490.901123046875	-482.7352600097657	236.3636932373047	1471.166259765625	-500.8018493652345	134.9192657470703	1140.841674804688	-548.5289916992189	82.64248657226564	1147.77294921875	-463.0540771484376	83.72071838378908	1129.585327148438	-521.8978881835939	167.4126892089844	863.0916137695315	-488.0900878906251	127.9972534179688	874.6067504882815	-564.0338745117189	174.9603881835938	753.9170532226564	-483.3796997070314	90.80096435546876	782.095397949219	-555.2279663085939	37.27403640747071	1353.783813476563	-180.2256774902344	95.8541717529297	1508.552001953125	-188.0678863525391	145.27197265625	1512.8369140625	-111.0762023925782	199.272445678711	1507.3349609375	-84.89822387695314	136.8362426757813	1176.46142578125	0.7494810223579408	120.4966812133789	1150.135986328125	-90.09738922119142	101.0583724975586	1141.829345703125	-33.94015121459962	310.3589172363282	938.0277099609377	5.125455856323243	243.7620544433594	919.3144531250002	47.50491333007813	365.6574096679688	862.3870239257815	27.87178993225098	261.2480163574219	822.2995605468752	44.32953262329102	
